<svg width="1173" height="399" viewBox="0 0 1173 399" fill="none" xmlns="http://www.w3.org/2000/svg">
<path fill-rule="evenodd" clip-rule="evenodd" d="M1066.89 0.0929247C1077.7 0.456666 1086.68 1.42664 1093.35 3.1241C1098.81 4.45782 1106.46 6.76152 1110.22 8.33773C1114.11 9.91395 1120.54 13.3089 1124.55 15.8551C1128.55 18.4013 1134.14 22.4024 1137.05 24.8274C1139.96 27.2523 1145.3 32.9509 1149.06 37.6796C1152.83 42.4082 1157.92 50.5318 1160.47 55.8666C1163.14 61.2015 1166.3 69.9313 1167.76 75.2662C1169.58 82.2985 1170.55 90.1796 1171.64 123.765L1168.73 125.948C1166.06 127.766 1162.29 128.009 1131.47 128.009C1098.82 128.009 1097.12 127.887 1094.81 125.584C1092.62 123.401 1092.38 121.583 1092.38 110.064C1092.38 102.304 1091.65 94.6657 1090.68 91.0283C1089.71 87.6334 1087.16 82.6623 1085.22 79.7523C1082.79 76.4787 1079.27 73.5687 1075.03 71.6288C1070.66 69.5676 1066.65 68.5976 1062.04 68.5976C1058.15 68.5976 1053.3 69.5676 1050.51 70.9013C1047.84 72.1138 1044.2 74.66 1042.38 76.5999C1040.55 78.5399 1037.88 82.9048 1036.31 86.1784C1034 91.1496 1033.51 94.302 1033.51 103.759C1033.51 113.702 1034 116.248 1036.67 121.946C1038.37 125.584 1041.65 130.797 1043.95 133.586C1046.26 136.254 1051.84 141.831 1056.58 146.075C1061.31 150.197 1072.48 159.169 1081.46 165.838C1090.44 172.628 1104.4 183.297 1112.41 189.602C1120.42 196.028 1131.22 205.001 1136.56 209.729C1141.78 214.458 1149.43 222.703 1153.43 228.038C1157.44 233.373 1162.17 240.769 1163.99 244.406C1165.81 248.043 1168.61 255.197 1170.18 260.168C1172.85 268.413 1173.1 271.323 1172.98 292.905C1172.98 315.093 1172.73 317.154 1169.58 327.46C1167.76 333.523 1164.36 341.889 1162.05 346.254C1159.87 350.619 1155.38 357.408 1152.1 361.41C1148.94 365.411 1142.75 371.594 1138.38 375.111C1134.14 378.627 1127.1 383.355 1122.73 385.659C1118.36 387.841 1111.56 390.873 1107.55 392.328C1103.55 393.661 1097.84 395.359 1094.81 396.086C1091.78 396.814 1083.76 397.784 1076.85 398.511C1068.96 399.239 1059.73 399.117 1051.36 398.39C1044.2 397.784 1033.64 395.844 1027.69 394.146C1021.86 392.449 1013.73 389.418 1009.48 387.357C1005.36 385.295 998.68 381.294 994.675 378.384C990.669 375.596 984.479 370.018 980.838 366.138C977.318 362.258 972.22 355.468 969.671 351.104C967.122 346.739 963.238 338.009 961.175 331.704C957.412 320.671 957.169 319.216 956.805 298.361C956.441 281.629 956.684 276.173 957.898 274.96C959.111 273.748 967.486 273.384 994.675 273.384C1021.13 273.505 1030.36 273.869 1031.82 274.96C1033.39 276.173 1034 279.446 1034.49 289.874C1034.85 299.089 1035.82 305.272 1037.52 309.88C1039.22 314.325 1042.01 318.407 1045.9 322.126C1049.29 325.399 1053.78 328.309 1056.58 329.158C1059.25 329.885 1063.62 330.492 1066.29 330.492C1069.2 330.492 1073.81 329.158 1077.82 327.218C1081.82 325.157 1085.83 321.883 1087.89 318.973C1089.83 316.306 1091.9 312.789 1092.62 311.092C1093.23 309.395 1094.32 305.03 1094.93 301.392C1095.78 296.906 1095.78 292.541 1094.81 288.055C1094.08 284.418 1092.26 278.961 1090.8 276.052C1089.35 273.142 1083.76 266.594 1078.42 261.502C1073.08 256.41 1060.58 246.346 1050.63 238.95C1040.8 231.554 1026.23 220.763 1018.46 214.822C1010.7 208.881 998.923 198.453 992.126 191.785C985.45 184.995 977.318 175.416 974.041 170.445C970.764 165.474 966.394 157.593 964.209 152.864C961.903 148.136 959.354 141.103 958.262 137.102C957.291 133.101 955.834 125.22 955.106 119.521C954.256 113.58 954.014 103.759 954.499 96.4845C954.863 89.4521 956.32 79.3886 957.655 74.0537C958.99 68.7188 961.903 60.5953 964.088 55.8666C966.273 51.138 969.793 44.9544 971.856 41.9232C973.919 38.892 978.774 33.1934 982.658 29.3135C986.664 25.3123 993.339 19.8562 997.709 17.0675C1002.08 14.1576 1008.88 10.5202 1012.88 8.82272C1016.89 7.12526 1023.68 4.82157 1028.05 3.73034C1032.42 2.63912 1039.22 1.18415 1043.22 0.699161C1047.23 0.0929247 1057.91 -0.14957 1066.89 0.0929247V0.0929247ZM157.182 4.57907C157.789 4.45782 167.499 13.4301 199.056 44.9544V354.135L159.609 393.54H125.624L104.99 372.928H80.7149L57.0466 349.285V323.823L40.054 306.848V280.174L15.7789 255.925V225.613L0 209.851V155.289L29.1302 126.19V103.153L49.7641 82.541V55.8666L78.2874 27.3735H104.99L126.595 5.6703L141.281 5.18531C149.414 5.06406 156.575 4.70032 157.182 4.57907V4.57907ZM120.769 27.3735C131.45 27.3735 132.178 27.8585 140.432 36.1033L149.292 44.9544V66.7789C157.424 74.9025 159.366 75.8724 162.886 75.8724C165.435 75.8724 168.955 76.5999 170.654 77.3274C172.475 78.1761 174.66 80.3586 175.509 82.1773C176.48 84.1172 177.209 87.7547 177.209 90.4221C177.209 94.302 176.359 96.1207 173.082 99.5156C169.683 103.032 168.105 103.759 163.979 103.759C161.187 103.759 157.546 103.032 155.847 102.183C154.147 101.456 151.841 99.3944 150.87 97.6969C149.778 95.8782 149.049 92.2408 149.171 88.6034C149.292 82.9048 148.928 82.1773 143.83 77.0849L138.368 71.6288V48.5918L128.051 38.2858H83.021L59.4741 61.929V88.6034L38.8403 109.215V124.371H57.6535C68.0918 113.944 70.7621 112.247 73.0682 112.247C75.6171 112.247 76.9523 111.398 78.166 108.852C79.0156 107.033 81.9287 104.608 84.4775 103.274C87.6333 101.819 90.425 101.334 92.8525 101.819C94.7945 102.304 97.7075 103.396 99.164 104.366C100.742 105.335 102.805 108.124 103.776 110.428C104.747 112.732 105.354 116.369 104.99 118.551C104.626 120.734 102.927 124.129 100.985 125.948C99.164 127.887 96.3724 129.706 94.6731 130.07C92.9739 130.434 89.6967 130.434 87.3906 130.07C84.7203 129.585 81.9287 127.887 79.7439 125.341L76.224 121.34L62.5085 135.284H35.3204L9.71006 161.352V203.788L38.9616 232.888C43.0884 227.916 45.5159 225.855 46.9724 225.128C48.5503 224.4 51.4633 223.794 53.4053 223.794C55.3474 223.794 58.7459 224.643 60.6879 225.613C62.6299 226.583 65.1788 229.129 66.1498 231.069C67.1208 233.009 67.9704 236.404 67.9704 238.344C67.9704 240.284 66.9994 243.679 65.7857 245.619C64.6933 247.68 61.7803 250.226 59.4741 251.196C56.8039 252.53 53.6481 252.893 50.9778 252.53C48.3076 252.045 45.2732 250.226 42.7243 247.437C40.5395 245.012 37.6265 243.194 36.0486 243.194C34.5921 243.194 31.9218 241.617 29.9798 239.799L26.7027 236.525V252.287L49.7641 275.324C49.7641 300.665 49.7641 300.786 53.4053 304.423L57.0466 308.061C57.0466 296.179 57.2894 295.694 64.936 288.055C72.4613 280.538 72.8255 279.931 72.8255 274.354C72.8255 269.747 73.5537 267.928 76.3454 264.776C79.6225 261.138 80.5935 260.774 86.7837 260.774C92.9739 260.774 93.9449 261.138 97.222 264.776C100.014 267.928 100.742 269.747 100.742 274.475C100.863 278.355 100.014 281.265 98.3144 283.569C96.9793 285.388 93.8235 287.449 91.2746 288.176C88.8471 288.904 85.4486 289.146 83.7493 288.783C81.2004 288.055 79.6225 289.025 74.282 294.36L67.9704 300.786V344.435L85.5699 362.016H131.693C140.068 353.529 140.553 352.559 139.461 349.891C138.733 348.194 138.49 345.041 138.854 342.98C139.218 340.798 140.917 337.281 142.617 335.341C144.316 333.28 147.35 331.34 149.535 330.977C151.72 330.613 155.604 330.855 158.031 331.583C161.066 332.432 163.493 334.25 165.071 336.918C166.406 338.979 167.499 342.616 167.499 344.799C167.499 346.86 166.649 350.376 165.678 352.316C164.707 354.256 162.158 356.802 160.216 357.772C158.274 358.742 155.118 359.591 153.176 359.591C150.749 359.591 148.078 361.41 143.223 366.259L136.548 372.928H120.769L131.693 383.84H153.54L188.132 349.285V304.423L177.816 314.729H126.838C120.89 320.913 120.405 322.125 121.012 326.248C121.497 330.007 121.012 332.068 118.706 335.341C117.006 337.766 114.093 340.191 111.666 341.04C108.834 342.01 106.002 342.131 103.169 341.404C100.863 340.798 97.7075 339.1 96.1296 337.524C94.6731 335.948 93.0952 332.553 92.7311 329.885C92.1242 326.612 92.6097 323.823 93.9449 321.156C95.0372 318.973 97.1006 316.306 98.5571 315.336C100.135 314.366 103.776 313.517 106.811 313.517C111.544 313.517 112.879 312.911 117.128 308.667L121.983 303.817H172.96L188.132 288.661V249.862C168.955 230.705 167.741 229.856 163.25 229.856C159.245 229.856 157.91 230.463 155.604 233.494C154.147 235.434 151.113 237.616 148.928 238.222C146.865 238.829 143.345 238.95 141.403 238.465C139.461 238.101 136.912 237.252 135.82 236.525C134.849 235.798 133.028 233.979 131.935 232.281C130.722 230.584 129.872 226.946 129.872 224.158C129.872 219.914 130.6 218.217 133.999 214.7C137.397 211.184 138.975 210.457 143.102 210.457C145.894 210.457 149.535 211.184 151.234 212.033C152.933 212.761 155.118 214.7 156.089 216.277C157.303 218.217 159.002 218.944 162.037 218.944H166.285C166.285 206.456 166.042 205.971 159.609 199.545L152.933 192.876C152.933 179.418 152.448 177.356 150.749 176.265C149.535 175.416 147.593 173.355 146.501 171.658C145.287 169.96 144.437 166.323 144.437 163.534C144.437 159.291 145.165 157.593 148.564 154.077C151.962 150.561 153.54 149.833 157.667 149.833C160.459 149.833 164.1 150.561 165.921 151.531C167.863 152.379 169.926 154.441 170.776 156.017C171.504 157.593 172.475 159.897 172.839 161.109C173.203 162.2 172.96 165.353 172.354 168.02C171.625 171.051 169.805 173.84 167.499 175.659C164.464 177.841 163.857 179.175 163.857 183.176C163.857 187.42 164.586 188.875 169.926 194.088L175.995 200.151V221.975L188.132 234.1V139.527C174.174 125.705 174.174 125.584 166.892 125.584H159.609C160.216 134.556 159.731 138.678 158.76 140.618C157.91 142.558 155.725 144.862 153.783 145.711C151.962 146.681 148.321 147.408 145.651 147.408C141.767 147.408 139.946 146.56 136.548 143.165C133.149 139.77 132.3 137.951 132.3 134.071C132.3 131.404 133.028 127.766 133.999 125.826C134.849 124.008 137.033 121.825 138.854 120.976C140.553 120.249 143.466 119.521 145.287 119.521C147.229 119.643 149.778 118.43 151.113 117.096C153.298 114.914 154.997 114.55 166.285 114.672H179.029L188.132 123.765V49.8043L153.54 15.2488H132.785L120.769 27.3735ZM159.973 91.1496C160.459 92.1196 161.915 92.847 163.25 92.6045C164.586 92.362 165.921 91.1496 166.042 89.8159C166.285 88.4821 165.678 87.0272 164.586 86.5422C163.493 86.0572 161.915 86.4209 160.823 87.3909C159.731 88.4821 159.366 89.9371 159.973 91.1496V91.1496ZM84.5989 57.5641C88.6043 57.5641 91.5173 58.2916 93.8235 59.989C95.7655 61.444 97.5861 64.3539 98.0716 66.7789C98.6785 69.0826 98.9213 72.4775 98.6785 74.2962C98.3144 77.2062 100.499 79.8736 128.658 108.003V145.59L112.273 161.958H105.354C99.4068 161.958 98.193 162.322 97.7075 164.383C97.3434 165.717 95.4014 167.899 93.2166 169.233C91.0318 170.567 87.5119 171.658 85.3272 171.658C83.1424 171.658 79.7439 170.688 77.6805 169.475C75.6171 168.384 73.1896 165.474 72.0972 163.17C70.7621 160.382 70.398 157.472 70.8835 154.683C71.2476 152.258 73.1896 148.863 75.0102 147.045C76.8309 145.226 79.6225 143.407 81.3218 143.043C83.021 142.68 86.1768 142.68 88.3616 143.043C90.5463 143.407 93.8235 145.347 95.6441 147.408C98.0716 150.076 100.014 151.046 103.169 151.046C106.568 151.046 108.51 149.954 117.735 140.74V112.853L104.14 99.1519C90.5463 85.5722 90.425 85.5722 84.7203 85.5722C79.7439 85.5722 78.2874 84.966 74.6461 81.3285C71.0048 77.5699 70.398 76.3574 70.5193 71.5075C70.6407 66.9001 71.369 65.2027 74.6461 61.8078C78.166 58.1703 79.5011 57.6853 84.5989 57.5641V57.5641ZM143.83 135.284C145.044 136.86 146.379 137.345 147.593 136.739C148.564 136.254 149.656 135.162 150.02 134.314C150.263 133.465 149.656 132.01 148.685 131.04C147.714 129.949 146.622 129.221 146.379 129.221C146.136 129.221 145.044 129.949 143.952 131.04C142.252 132.616 142.252 133.101 143.83 135.284ZM155.24 164.504C155.24 165.717 156.332 167.05 157.546 167.414C158.638 167.778 160.337 167.414 161.187 166.565C162.037 165.595 162.401 164.019 162.037 162.807C161.794 161.715 160.459 160.745 159.245 160.745C158.031 160.745 156.575 161.109 155.968 161.473C155.482 161.958 155.118 163.292 155.24 164.504V164.504ZM140.675 225.128C140.675 226.34 141.767 227.674 142.981 228.038C144.073 228.401 145.772 228.038 146.622 227.189C147.472 226.219 147.836 224.643 147.472 223.43C147.229 222.339 145.894 221.369 144.68 221.369C143.466 221.369 142.01 221.733 141.403 222.097C140.917 222.582 140.553 223.915 140.675 225.128V225.128ZM45.5159 153.956C48.1862 154.319 51.4633 155.532 52.6771 156.744C53.8909 157.957 55.7115 160.624 56.6825 162.807C57.7749 165.474 58.0176 168.263 57.4107 171.173C56.8039 173.961 54.9832 176.993 52.5557 179.054C50.2496 181.115 48.5503 183.661 48.5503 185.237C48.5503 187.056 52.6771 192.027 73.4324 212.882H104.99L112.515 205.243C119.434 198.211 119.919 197.483 118.948 194.088C118.22 191.785 118.22 188.632 118.948 185.844C119.798 182.934 121.497 180.388 123.803 178.933C126.109 177.356 129.508 176.508 132.906 176.508C137.519 176.508 139.097 177.114 142.617 180.751C146.258 184.267 146.865 185.844 146.865 190.451C146.865 194.937 146.258 196.513 142.738 200.151C139.461 203.546 137.762 204.394 133.999 204.394C129.872 204.394 128.416 205.243 115.914 217.732L121.133 222.824C125.503 227.31 126.231 228.765 126.231 233.13C126.231 236.767 126.959 238.829 128.416 239.799C129.629 240.647 131.571 242.709 132.664 244.406C133.877 245.982 134.727 249.135 134.727 251.317C134.727 253.5 133.877 256.895 132.906 258.956C131.935 260.896 129.508 263.321 127.445 264.412C125.503 265.382 122.225 266.231 120.162 266.231C118.22 266.231 115.064 265.503 113.244 264.533C111.423 263.684 108.874 260.896 107.782 258.471C106.568 256.046 105.597 252.893 105.597 251.317C105.597 249.862 106.689 246.831 108.024 244.649C109.36 242.466 111.544 240.162 112.879 239.556C114.215 238.829 115.307 237.131 115.307 235.555C115.307 234.1 113.244 230.826 106.204 223.673L68.5773 223.794L37.6265 192.876V187.056C37.6265 182.57 37.141 181.115 35.199 180.145C33.8638 179.418 31.9218 177.235 30.9508 175.295C29.9798 173.234 29.1302 169.96 29.1302 168.02C29.1302 165.959 29.9798 162.685 30.9508 160.745C31.9218 158.684 34.5921 156.259 36.7769 155.289C39.2044 154.077 42.6029 153.592 45.5159 153.956V153.956ZM83.6279 274.839C83.6279 276.052 84.7203 277.507 85.9341 277.87C87.2692 278.355 88.6043 277.87 89.5753 276.415C90.6677 274.597 90.6677 273.748 89.5753 272.535C88.7257 271.687 87.3906 270.959 86.6623 270.959C85.9341 271.08 84.9631 271.444 84.3562 271.808C83.8707 272.293 83.5065 273.627 83.6279 274.839ZM104.747 330.249C106.689 332.189 106.932 332.189 108.995 330.249C110.331 328.915 110.695 327.46 110.209 326.248C109.724 325.278 108.146 324.429 106.811 324.429C105.476 324.429 103.898 325.278 103.412 326.248C102.927 327.46 103.412 328.915 104.747 330.249V330.249ZM150.749 347.224C152.084 348.436 153.54 348.921 154.754 348.315C155.725 347.83 156.453 346.254 156.332 344.677C156.089 343.223 155.118 341.889 154.026 341.646C153.055 341.404 151.356 342.131 150.385 343.223C148.928 344.92 148.928 345.405 150.749 347.224V347.224ZM824.142 0.0929247C834.944 0.456666 843.926 1.42664 850.602 3.00286C856.063 4.45782 863.71 6.76152 867.594 8.33773C871.357 9.91395 877.79 13.1876 881.795 15.7338C885.8 18.28 891.748 22.6449 895.025 25.4336C898.181 28.101 903.764 34.1634 907.405 38.892C910.925 43.4994 915.78 51.3805 918.086 56.4729C920.514 61.444 923.548 69.9313 925.005 75.2662C926.947 82.2985 927.797 90.1796 928.889 123.765L925.976 125.826C923.427 127.766 919.664 128.009 888.835 128.009C856.185 128.009 854.364 127.887 852.058 125.584C849.995 123.401 849.631 121.461 849.631 110.064C849.631 102.183 849.024 94.6657 847.931 91.0283C846.96 87.6334 844.533 82.6623 842.469 79.7523C840.042 76.4787 836.522 73.5687 832.395 71.6288C827.904 69.5676 823.899 68.5976 819.287 68.5976C815.403 68.5976 810.669 69.5676 807.756 70.9013C805.086 72.1138 801.444 74.66 799.624 76.5999C797.803 78.5399 795.133 82.7835 793.555 86.1784C791.249 91.1496 790.763 94.302 790.763 103.759C790.763 114.308 791.127 116.005 794.647 123.159C797.439 128.979 801.323 133.707 809.212 141.346C815.038 147.045 827.783 157.714 837.493 164.868C847.203 172.143 862.982 184.389 872.692 192.149C882.402 199.787 894.418 210.214 899.516 215.185C904.492 220.278 910.804 227.674 913.596 231.675C916.266 235.676 919.907 241.617 921.606 245.012C923.306 248.286 925.976 255.076 927.554 260.168C930.103 268.413 930.345 271.323 930.345 292.905C930.224 315.093 929.981 317.154 926.825 327.46C925.005 333.401 921.606 341.889 919.422 346.254C917.115 350.497 912.625 357.408 909.347 361.41C906.192 365.411 900.001 371.473 895.753 374.989C891.384 378.505 884.344 383.234 879.974 385.538C875.605 387.842 868.808 390.873 864.802 392.328C860.797 393.661 855.092 395.359 852.058 396.086C849.024 396.693 841.013 397.784 834.216 398.39C826.205 399.117 816.98 399.117 808.727 398.39C801.566 397.784 790.885 395.844 785.059 394.146C779.233 392.449 770.979 389.418 766.852 387.357C762.604 385.174 755.928 381.173 751.923 378.384C747.918 375.596 741.727 370.018 738.086 366.138C734.566 362.137 729.59 355.347 726.92 351.104C724.371 346.739 720.608 338.009 718.423 331.704C714.661 320.671 714.418 319.216 714.054 298.361C713.69 281.629 713.932 276.173 715.146 274.96C716.36 273.748 724.735 273.384 751.923 273.384C778.504 273.384 787.607 273.869 789.185 274.96C790.642 276.173 791.249 279.446 791.734 289.874C792.22 297.997 793.191 305.515 794.526 309.273C795.982 313.032 799.017 317.639 802.901 321.519C806.906 325.642 810.669 328.309 813.825 329.158C816.495 329.885 820.864 330.492 823.535 330.492C826.448 330.492 831.06 329.158 835.065 327.097C839.071 325.157 843.076 321.883 845.14 318.973C847.082 316.306 849.266 312.668 849.873 311.092C850.48 309.395 851.572 305.03 852.179 301.392C853.029 296.785 853.029 292.541 852.058 288.055C851.33 284.296 849.631 278.961 848.053 276.052C846.596 273.142 841.013 266.594 835.672 261.502C830.332 256.41 817.83 246.225 807.877 238.95C798.046 231.554 783.602 220.642 775.834 214.7C768.066 208.759 756.778 199.181 750.952 193.482C744.276 187.177 736.994 178.448 732.017 171.051C727.526 164.383 722.186 154.804 720.123 149.833C717.938 144.741 715.389 136.617 714.175 131.646C712.597 124.856 712.112 117.46 712.112 103.153C712.112 87.3909 712.719 81.9348 714.782 74.0537C716.117 68.7188 719.758 59.3828 722.671 53.4417C725.706 47.3793 730.804 39.377 733.959 35.6184C737.237 31.8597 743.669 25.6761 748.282 21.9174C753.015 18.28 760.662 13.3089 765.274 11.0052C770.008 8.82272 777.897 5.79154 782.874 4.33658C787.85 3.00286 795.497 1.3054 799.866 0.699161C804.236 0.0929247 815.16 -0.14957 824.142 0.0929247V0.0929247ZM282.32 4.33658C315.456 4.33658 342.522 4.82157 348.106 5.54905C353.204 6.27653 361.821 7.97399 367.162 9.30771C372.502 10.6414 382.334 14.4001 389.009 17.5525C396.171 21.0687 404.667 26.4036 409.643 30.526C414.377 34.6484 420.688 41.5595 424.208 46.7731C427.728 51.7442 431.734 59.1403 433.19 63.1415C434.768 67.1426 436.71 73.3262 437.681 77.0849C438.652 80.7223 439.987 88.8459 440.715 95.272C441.444 101.577 441.686 112.247 441.322 118.915C440.837 125.584 439.502 135.526 438.167 140.982C436.831 146.56 433.797 154.926 431.491 159.775C429.185 164.625 424.937 171.415 422.145 174.81C419.232 178.326 413.77 183.782 409.886 186.935C406.002 190.209 402.968 193.118 402.968 193.482C402.968 193.725 405.031 195.422 407.459 197.12C409.886 198.696 415.712 204.152 420.324 209.244C426.515 215.913 430.277 221.49 434.647 230.463C437.924 237.131 441.808 246.952 443.143 252.287C444.964 259.077 445.935 267.443 446.42 280.174C446.784 291.814 446.542 301.998 445.571 308.667C444.721 314.244 442.657 322.974 441.08 328.067C439.38 333.038 435.86 340.919 433.069 345.647C430.277 350.255 425.058 357.287 421.295 361.167C417.533 365.168 411.221 370.624 407.216 373.534C403.21 376.323 396.656 380.324 392.651 382.264C388.645 384.325 381.605 387.114 376.872 388.569C372.26 390.024 363.156 391.964 356.845 392.934C347.984 394.268 331.599 394.753 285.84 394.631C231.221 394.631 226.244 394.51 224.181 392.57C222.118 390.63 222.118 381.052 221.996 199.302C221.996 23.4936 222.118 7.97399 223.938 6.15529C225.759 4.57907 232.677 4.33658 282.32 4.33658V4.33658ZM302.104 119.036L302.226 164.383C332.448 163.655 335.24 163.292 340.945 160.624C345.071 158.806 349.562 155.411 352.961 151.652C356.845 147.166 358.908 143.286 360.729 137.102C362.914 130.07 363.156 126.311 362.671 115.278C362.307 104.123 361.578 100.728 358.908 94.6657C357.088 90.6646 353.568 85.3297 351.14 82.9048C348.591 80.3586 343.858 77.2061 340.459 75.7512C335.604 73.5687 331.477 72.9625 319.218 72.4775C310.843 72.235 303.561 72.3563 302.954 72.8413C302.347 73.4475 301.983 92.847 302.104 119.036ZM302.226 325.642C336.696 325.035 338.517 324.793 344.707 321.762C348.349 320.064 353.082 316.427 355.267 313.881C357.33 311.335 360.486 306.242 362.185 302.605C363.885 298.846 365.827 291.329 366.555 285.63C367.405 279.931 367.647 272.293 367.283 268.655C366.798 264.897 365.948 259.198 365.22 255.925C364.37 252.53 362.307 246.831 360.486 243.194C358.544 239.435 355.024 234.464 352.475 232.039C349.805 229.493 345.314 226.461 342.28 225.128C337.667 222.945 334.269 222.582 319.582 222.582H302.226V325.642ZM537.695 4.57907C590.372 5.06406 602.874 5.4278 609.306 7.00402C613.676 8.09524 621.565 10.6414 626.906 12.7026C632.246 14.7638 640.136 18.765 644.505 21.5537C648.875 24.4636 655.308 29.4347 658.949 32.8297C662.59 36.1033 667.81 42.1657 670.601 46.1669C673.514 50.168 677.52 56.9579 679.704 61.3228C681.889 65.5664 685.045 74.2962 690.021 92.2408L690.385 191.057C690.628 257.986 690.385 293.511 689.414 301.392C688.686 307.697 687.351 316.184 686.259 320.186C685.288 324.187 682.375 331.825 679.826 337.16C677.277 342.495 672.179 350.619 668.538 355.347C664.897 359.955 658.464 366.623 654.094 370.018C649.846 373.413 642.806 378.263 638.437 380.567C634.067 382.992 627.27 386.023 623.265 387.478C619.259 388.811 612.462 390.873 608.093 391.964C601.538 393.54 589.644 393.904 537.088 394.268C477.978 394.753 473.851 394.631 471.788 392.57C469.724 390.63 469.603 380.93 469.482 199.666C469.36 14.1576 469.36 8.70148 471.545 6.39778C473.851 4.21533 476.521 4.21533 537.695 4.57907V4.57907ZM549.711 199.666L549.832 325.642C582.118 325.035 585.153 324.55 589.279 322.368C591.95 320.913 595.955 317.882 598.019 315.699C600.203 313.517 603.238 308.91 604.937 305.636C606.515 302.241 608.578 296.3 609.306 292.299C610.277 287.085 610.52 258.592 610.277 194.088C609.913 109.7 609.792 102.668 607.729 97.0907C606.515 93.6958 603.723 88.4821 601.538 85.5722C599.232 82.2985 594.984 78.6611 590.979 76.4787C584.789 73.0837 583.575 72.8413 568.039 72.4775C559.057 72.1138 551.167 72.3563 550.561 72.8413C549.954 73.4475 549.59 124.614 549.711 199.666ZM87.6333 116.49C87.8761 117.824 89.0898 119.036 90.425 119.279C91.8815 119.521 93.2166 118.794 93.8235 117.46C94.309 116.127 94.0662 114.55 93.2166 113.702C92.367 112.853 91.396 112.125 91.0318 112.125C90.6677 112.247 89.6967 112.61 88.8471 113.095C87.9974 113.58 87.3906 115.157 87.6333 116.49V116.49ZM81.9287 72.8413C82.2928 73.8112 83.7493 74.5387 85.3272 74.2962C86.7837 74.175 88.1188 73.0837 88.3616 71.8713C88.483 70.78 87.6333 69.2038 86.2982 68.5976C84.5989 67.7489 83.6279 67.8701 82.6569 69.2038C81.9287 70.1738 81.5645 71.75 81.9287 72.8413V72.8413ZM82.2928 158.684C82.7783 160.018 84.1134 160.745 85.5699 160.503C86.9051 160.26 88.1188 159.048 88.2402 157.836C88.3616 156.623 87.7547 155.047 87.0264 154.562C86.1768 153.956 85.2058 153.471 84.8417 153.471C84.3562 153.471 83.3852 154.077 82.6569 154.926C81.9287 155.774 81.6859 157.472 82.2928 158.684V158.684ZM50.9778 240.284C52.1916 241.375 53.6481 241.739 54.9832 241.132C56.3184 240.526 57.0466 239.192 56.8039 237.737C56.6825 236.282 55.3474 235.07 53.7695 234.949C52.1916 234.706 50.7351 235.313 50.1282 236.525C49.5213 237.737 49.8854 239.071 50.9778 240.284ZM40.5395 169.475C40.9036 170.688 41.996 171.658 42.8457 171.658C43.6953 171.658 45.0304 170.93 45.88 169.839C47.0938 168.384 47.0938 167.657 45.88 166.08C45.0304 165.11 43.5739 164.262 42.7243 164.262C41.8746 164.383 40.9036 164.989 40.5395 165.838C40.1754 166.687 40.1754 168.384 40.5395 169.475V169.475ZM128.658 191.057C128.658 191.785 129.629 192.755 130.843 193.361C132.3 194.21 133.392 194.088 134.484 193.118C135.334 192.27 136.184 191.057 136.305 190.209C136.426 189.481 135.698 188.269 134.606 187.541C133.028 186.45 132.178 186.571 130.6 188.026C129.387 189.117 128.537 190.451 128.658 191.057V191.057ZM117.492 253.257C117.977 254.591 119.312 255.318 120.769 255.076C122.104 254.833 123.318 253.621 123.439 252.408C123.561 251.196 122.954 249.62 122.225 249.135C121.376 248.528 120.405 248.043 120.041 248.043C119.555 248.043 118.584 248.65 117.856 249.498C117.128 250.347 116.885 252.045 117.492 253.257V253.257Z" fill="#40E0D0"/>
</svg>
